<svg fill="none" height="43" viewBox="0 0 43 43" width="43" xmlns="http://www.w3.org/2000/svg"><path d="m39.6 0h-36.3c-1.8 0-3.3 1.5-3.3 3.3v36.3c0 1.8 1.5 3.3 3.3 3.3h36.3c1.8 0 3.3-1.5 3.3-3.3v-36.3c0-1.8-1.4-3.3-3.3-3.3zm-6.9 33.5h-17.4c-2.8 0-5.5-1-7.7-2.8-2.8-2.3-4.3-5.7-4.3-9.2 0-6.6 5.4-12 12-12 3.1 0 6 1.2 8.2 3.2.9-.4 1.9-.6 2.9-.6 4.3 0 7.9 3.4 8.1 7.7 2.9.8 5.1 3.5 5.1 6.7.1 3.9-3 7-6.9 7z" fill="#2e7de1"/><path d="m15.3 12.5c2.3 0 4.5.9 6.2 2.5l-12.69995 12.6c-1.6-1.7-2.5-3.9-2.5-6.2 0-4.9 3.99995-8.9 8.99995-8.9z" fill="#071b2c"/><path d="m26.5 15.2c-.9 0-1.8.3-2.6.7l-.2.2-13 13c1.4.9 2.9999 1.3 4.7 1.3h6.6l9.5999-9.6v-.6c0-2.7-2.3-5-5.0999-5z" fill="#071b2c"/><path d="m33.1 22.7c2 .2 3.6001 1.9 3.6001 3.9 0 2.2-1.8001 3.9-3.9001 3.9h-7.5z" fill="#2e7de1"/></svg>