<svg fill="none" height="43" viewBox="0 0 270 43" width="270" xmlns="http://www.w3.org/2000/svg"><g fill="#071b2c"><path d="m154.3 34.2h-2.1l-.9-1.5c-1.6 1-3.4 1.5-5.3 1.5-4.1 0-6.2-1.8-6.2-5.2 0-3.5 2.3-5.3 7-5.3 1.3 0 2.7.1 4 .3v-1.2c0-1.7-1.4-2.5-4.1-2.5-1.6 0-3.4.3-5.1.8l-.4.1v-3l.2-.1c1.8-.5 3.6-.8 5.3-.8 5.1 0 7.6 1.8 7.6 5.4zm-7.5-7.7c-2.3 0-3.5.8-3.5 2.4s.9 2.4 2.7 2.4c1.9 0 3.5-.5 4.8-1.4v-3c-1.3-.3-2.7-.4-4-.4z"/><path d="m65.9001 34.2h-3.5v-10.7c0-1.8-1.4-3.3-3.2-3.4h-.2c-1.5 0-3 .6-4.4 1.9v12.1h-3.5v-23.3h1.8c.9 0 1.7.8 1.7 1.7v6.2c1.4-1 3-1.5 4.8-1.5 4.3 0 6.4 2.2 6.4 6.4z"/><path d="m82.7 34.2h-2.1l-.9-1.5c-1.6 1-3.4 1.5-5.3 1.5-4.1 0-6.2-1.8-6.2-5.2 0-3.5 2.3-5.3 7-5.3 1.3 0 2.7.1 4 .3v-1.2c0-1.7-1.4-2.5-4.1-2.5-1.7 0-3.4.3-5.1.8l-.4-.1v-3l.2-.1c1.8-.5 3.6-.8 5.3-.8 5 0 7.6 1.8 7.6 5.4zm-7.5-7.7c-2.3 0-3.5.8-3.5 2.4s.9 2.4 2.7 2.4c1.9 0 3.5-.5 4.8-1.4v-3c-1.3-.3-2.7-.4-4-.4z"/><path d="m98.6001 34.2h-13.5v-2.6l.1-.1 9.5-11.4h-9.3v-2.9h13.4v2.7.1l-9.4 11.4h9.2z"/><path d="m109.1 34.2c-5.8 0-8.8-2.9-8.8-8.7 0-5.5 2.6-8.3 7.8-8.3 4.8 0 7.3 2.4 7.3 7.2 0 .7 0 1.4-.1 2.1v.3h-11.5c.1 3 1.9 4.5 5.6 4.5 1.8 0 3.5-.2 4.9-.6l.4-.1v3l-.2.1c-1.5.3-3.3.5-5.4.5zm-5.3-10.4h8.3c-.1-2.5-1.4-3.7-3.9-3.7-2.7 0-4.1 1.2-4.4 3.7z"/><path d="m121.8 34.2h-3.5v-23.4h1.8c.9 0 1.7.8 1.7 1.7z"/><path d="m133.4 34.2c-6 0-9-3-9-8.8 0-5.4 3-8.2 9-8.2 1.6 0 3.1.2 4.4.5l.2.1v2.9l-.4-.1c-1.3-.3-2.8-.5-4.5-.5-3.6 0-5.4 1.7-5.4 5.3 0 4 1.8 5.9 5.4 5.9 1.6 0 3.1-.2 4.5-.5l.4-.1v2.9l-.2.1c-1.4.3-2.9.5-4.4.5z"/><path d="m163.7 34.2c-2 0-4-.3-5.9-.8l-.2-.1v-3.1l.4.1c1.9.6 3.8.9 5.8.9 3.6 0 3.6-1.5 3.6-2.1 0-.8-.3-1.9-2.4-1.9h-2.3c-3.7 0-5.6-1.7-5.6-5.1 0-3.3 2.4-5 7.1-5 2 0 4 .3 5.9.8l.2.1v3.1l-.4-.1c-1.9-.6-3.8-.9-5.7-.9-3.8 0-3.8 1.5-3.8 2.1 0 1.3.7 1.9 2.3 1.9h2.3c3.9 0 5.9 1.7 5.9 5.1-.1 3.3-2.5 5-7.2 5z"/><path d="m180.9 34.2h-3c-2.9 0-4.4-1.6-4.4-4.7v-15h2.3l.6 2.7h4.5v2.9h-4v9.1c0 1.4.5 2 1.7 2h2.3z"/></g><path d="m39.6 0h-36.3c-1.8 0-3.3 1.5-3.3 3.3v36.3c0 1.8 1.5 3.3 3.3 3.3h36.3c1.8 0 3.3-1.5 3.3-3.3v-36.3c0-1.8-1.4-3.3-3.3-3.3zm-6.9 33.5h-17.4c-2.8 0-5.5-1-7.7-2.8-2.8-2.3-4.3-5.7-4.3-9.2 0-6.6 5.4-12 12-12 3.1 0 6 1.2 8.2 3.2.9-.4 1.9-.6 2.9-.6 4.3 0 7.9 3.4 8.1 7.7 2.9.8 5.1 3.5 5.1 6.7.1 3.9-3 7-6.9 7z" fill="#2e7de1"/><path d="m15.3 12.5c2.3 0 4.5.9 6.2 2.5l-12.69995 12.6c-1.6-1.7-2.5-3.9-2.5-6.2 0-4.9 3.99995-8.9 8.99995-8.9z" fill="#071b2c"/><path d="m26.5 15.2c-.9 0-1.8.3-2.6.7l-.2.2-13 13c1.4.9 2.9999 1.3 4.7 1.3h6.6l9.5999-9.6v-.6c0-2.7-2.3-5-5.0999-5z" fill="#071b2c"/><path d="m33.1 22.7c2 .2 3.6001 1.9 3.6001 3.9 0 2.2-1.8001 3.9-3.9001 3.9h-7.5z" fill="#2e7de1"/><path d="m204.4 33.3c-1.5.6-3.1.8-5 .8-6.1 0-9.2-3-9.2-8.9 0-5.6 3.1-8.4 9.2-8.4 1.9 0 3.5.3 5 .8v2.9c-1.5-.6-3.1-1-4.8-1-4.1 0-6.1 1.9-6.1 5.6 0 4.1 2 6.1 6.1 6.1 1.7 0 3.3-.3 4.8-1z" fill="#2e7de1"/><path d="m210.2 17.1v14.3h6.8v2.7h-9.9v-17z" fill="#2e7de1"/><path d="m217.3 25.6c0-5.8 2.8-8.6 8.5-8.6 5.6 0 8.4 2.9 8.4 8.6s-2.8 8.6-8.4 8.6c-5.4 0-8.2-2.9-8.5-8.6zm8.5 5.8c3.4 0 5.1-2 5.1-5.9s-1.7-5.8-5.1-5.8c-3.5 0-5.3 1.9-5.3 5.8.1 4 1.8 5.9 5.3 5.9z" fill="#2e7de1"/><path d="m236.9 27.4v-10.3h3.1v10.3c0 2.7 1.4 4.1 4.2 4.1s4.2-1.4 4.2-4.1v-10.3h3.2v10.3c0 4.5-2.4 6.8-7.3 6.8s-7.4-2.3-7.4-6.8z" fill="#2e7de1"/><path d="m254.9 34.1v-17h6.7c5.6 0 8.4 2.7 8.4 8 0 6-2.8 9-8.4 9zm6.6-2.8c3.5 0 5.3-2.1 5.3-6.2 0-3.5-1.8-5.3-5.3-5.3h-3.5v11.5z" fill="#2e7de1"/></svg>