<svg fill="none" height="88" viewBox="0 0 88 88" width="88" xmlns="http://www.w3.org/2000/svg" xmlns:xlink="http://www.w3.org/1999/xlink"><clipPath id="a"><path d="m0 0h87.874v87.874h-87.874z"/></clipPath><g clip-path="url(#a)"><path d="m9.081 18.162c5.0153 0 9.081-4.0657 9.081-9.081s-4.0657-9.081-9.081-9.081-9.081 4.0657-9.081 9.081 4.0657 9.081 9.081 9.081z" fill="#0b2a35"/><path d="m32.3181 18.162c5.0153 0 9.081-4.0657 9.081-9.081s-4.0657-9.081-9.081-9.081-9.081 4.0657-9.081 9.081 4.0657 9.081 9.081 9.081z" fill="#0b2a35"/><path d="m55.5561 18.162c5.0153 0 9.081-4.0657 9.081-9.081s-4.0657-9.081-9.081-9.081-9.081 4.0657-9.081 9.081 4.0657 9.081 9.081 9.081z" fill="#2e7de1"/><path d="m78.7929 18.162c5.0153 0 9.081-4.0657 9.081-9.081s-4.0657-9.081-9.081-9.081-9.081 4.0657-9.081 9.081 4.0657 9.081 9.081 9.081z" fill="#2e7de1"/><path d="m9.081 41.399c5.0153 0 9.081-4.0657 9.081-9.081s-4.0657-9.081-9.081-9.081-9.081 4.0657-9.081 9.081 4.0657 9.081 9.081 9.081z" fill="#0b2a35"/><path d="m32.3181 41.399c5.0153 0 9.081-4.0657 9.081-9.081s-4.0657-9.081-9.081-9.081-9.081 4.0657-9.081 9.081 4.0657 9.081 9.081 9.081z" fill="#0b2a35"/><path d="m55.5561 41.399c5.0153 0 9.081-4.0657 9.081-9.081s-4.0657-9.081-9.081-9.081-9.081 4.0657-9.081 9.081 4.0657 9.081 9.081 9.081z" fill="#2e7de1"/><path d="m78.7929 41.399c5.0153 0 9.081-4.0657 9.081-9.081s-4.0657-9.081-9.081-9.081-9.081 4.0657-9.081 9.081 4.0657 9.081 9.081 9.081z" fill="#2e7de1"/><g fill="#0b2a35"><path d="m9.081 64.637c5.0153 0 9.081-4.0657 9.081-9.081s-4.0657-9.081-9.081-9.081-9.081 4.0657-9.081 9.081 4.0657 9.081 9.081 9.081z"/><path d="m32.3181 64.637c5.0153 0 9.081-4.0657 9.081-9.081s-4.0657-9.081-9.081-9.081-9.081 4.0657-9.081 9.081 4.0657 9.081 9.081 9.081z"/><path d="m55.5561 64.637c5.0153 0 9.081-4.0657 9.081-9.081s-4.0657-9.081-9.081-9.081-9.081 4.0657-9.081 9.081 4.0657 9.081 9.081 9.081z"/><path d="m78.7929 64.637c5.0153 0 9.081-4.0657 9.081-9.081s-4.0657-9.081-9.081-9.081-9.081 4.0657-9.081 9.081 4.0657 9.081 9.081 9.081z"/><path d="m9.081 87.874c5.0153 0 9.081-4.0657 9.081-9.081s-4.0657-9.081-9.081-9.081-9.081 4.0657-9.081 9.081 4.0657 9.081 9.081 9.081z"/><path d="m32.3181 87.874c5.0153 0 9.081-4.0657 9.081-9.081s-4.0657-9.081-9.081-9.081-9.081 4.0657-9.081 9.081 4.0657 9.081 9.081 9.081z"/><path d="m55.5561 87.874c5.0153 0 9.081-4.0657 9.081-9.081s-4.0657-9.081-9.081-9.081-9.081 4.0657-9.081 9.081 4.0657 9.081 9.081 9.081z"/><path d="m78.7929 87.874c5.0153 0 9.081-4.0657 9.081-9.081s-4.0657-9.081-9.081-9.081-9.081 4.0657-9.081 9.081 4.0657 9.081 9.081 9.081z"/></g></g></svg>