<svg fill="none" height="51" viewBox="0 0 51 51" width="51" xmlns="http://www.w3.org/2000/svg"><path d="m22.7199 18.49c.2-.07.4-.13.6-.18 0-.41-.05-.81-.06-1.22-.0911-2.7715.2085-5.542.89-8.23l.2-.74c-1.3052-1.56893-2.9363-2.8349-4.78-3.71-.9092.24383-1.8011.54784-2.67.91l.78 1.89zm-11.61-7.39 9.26 8.78c.16-.14.3233-.2733.49-.4-.18-.36-.35-.72-.52-1.08-1.1487-2.5273-1.9364-5.2034-2.34-7.95l-.1-.75c-1.8013-.94837-3.787-1.49428-5.82-1.6-.734.58738-1.4288 1.22206-2.08 1.9l1.16 1.16zm-4.28 6.4 11.88 4.57c.0933-.1933.1933-.38.3-.56-.29-.26-.59-.52-.87-.79-2.0239-1.8998-3.7709-4.0743-5.19-6.46l-.37-.63c-2.03-.1913-4.07732.0612-6 .74-.47886.8143-.90313 1.6595-1.27 2.53l1.59.66zm-1.5 7.57 12.67-.32c0-.22.02-.4333.06-.64-.37-.13-.73-.25-1.09-.39-2.5954-.9868-5.0392-2.3333-7.26-4l-.58-.44c-1.96107.6021-3.76664 1.6261-5.29 3-.12471.9315-.18818 1.8702-.19 2.81h1.8z" fill="#0b2a35"/><path d="m39.06 11.15-8.82 9.3c.1333.1467.26.3.38.46.39-.19.78-.38 1.18-.56 2.5198-1.152 5.1894-1.9431 7.93-2.35l.74-.1c.9609-1.8118 1.5138-3.8119 1.62-5.86-.5727-.7187-1.1906-1.4-1.85-2.04l-1.24 1.16z" fill="#2e7de1"/><path d="m25.4301 18.12.61.06c.13-.39.27-.79.42-1.18.9855-2.5929 2.3321-5.0336 4-7.25l.47-.62c-.6047-1.95397-1.6286-3.75246-3-5.27-.9315-.12471-1.8702-.18818-2.81-.19v2.33z" fill="#0b2a35"/><path d="m28.0701 18.81c.18.0867.3566.1833.53.29.28-.32.56-.64.86-.95 1.8973-2.0112 4.0686-3.745 6.45-5.15l.66-.38c.1913-2.03-.0612-4.07732-.74-6-.8133-.49251-1.6585-.93015-2.53-1.31l-.8 1.93z" fill="#2e7de1"/><g fill="#0b2a35"><path d="m43.3499 17.57-11.74 5.21c.07.18.12.37.17.57.44 0 .88-.05 1.32-.07 2.7726-.0887 5.5438.2177 8.23.91l.7.19c1.5869-1.3096 2.867-2.9516 3.75-4.81-.2438-.9092-.5478-1.8011-.91-2.67l-1.63.67zm-15.9 14.09-.58.19c0 .42.05.84.07 1.26.0742 2.7705-.2422 5.5377-.94 8.22l-.2.74c1.3023 1.5678 2.9299 2.8337 4.77 3.71.9092-.2438 1.8012-.5478 2.67-.91l-.73-1.87zm11.64 7.44-9.34-8.86c-.15.13-.29.26-.45.38.19.39.38.78.56 1.18 1.1454 2.5277 1.9297 5.2039 2.33 7.95l.1.75c1.8013.9484 3.7871 1.4943 5.82 1.6.7499-.5728 1.4614-1.1941 2.13-1.86l-1.16-1.16zm4.28-6.41-12-4.63c-.08.18-.17.35-.27.52.33.29.66.58 1 .89 2.0238 1.8999 3.7708 4.0744 5.19 6.46l.37.63c2.03.1913 4.0773-.0612 6-.74.4755-.8146.8964-1.6597 1.26-2.53l-1.59-.66zm1.38-7.59h.12l-12.87.35c0 .2 0 .39-.05.58.42.14.84.29 1.25.45 2.5954.9868 5.0393 2.3333 7.26 4l.58.44c1.9611-.6021 3.7667-1.6261 5.29-3 .1247-.9315.1882-1.8702.19-2.81h-1.77zm-22.65 6.36c-.19-.09-.38-.19-.57-.29-.26.3-.52.59-.8.88-1.8962 2.018-4.0676 3.7585-6.45 5.17l-.66.38c-.1913 2.03.0612 4.0773.74 6 .8146.4754 1.6598.8964 2.53 1.26l.81-1.86zm-10.96 7.54 8.74-9.21c-.1466-.16-.2866-.3233-.42-.49-.35.17-.7.34-1.05.5-2.525 1.1392-5.1979 1.9169-7.94 2.31l-.73998.1c-.97003 1.8231-1.52655 3.8375-1.63 5.9.58566.7511 1.22038 1.4627 1.9 2.13l1.19998-1.2zm-4.28998-6.37 11.58998-5.15c-.0733-.2-.1366-.4067-.19-.62l-1.15.06h-.81c-2.5027.0163-4.997-.293-7.41998-.92l-.7-.19c-1.58688 1.3096-2.867 2.9516-3.75 4.81.24384.9092.54784 1.8012.91 2.67l1.63-.67zm17.91998-.54h-.62c-.13.39-.26.77-.41 1.15-.9853 2.5929-2.332 5.0337-4 7.25l-.47.62c.6048 1.954 1.6286 3.7525 3 5.27.9315.1247 1.8702.1882 2.81.19v-2.38z"/><path d="m25.0201 30.31c2.8774 0 5.21-2.3326 5.21-5.21s-2.3326-5.21-5.21-5.21-5.21 2.3326-5.21 5.21 2.3326 5.21 5.21 5.21z"/><path d="m25.1 50.2c-4.9643 0-9.8171-1.4721-13.9448-4.2301-4.12767-2.758-7.34481-6.6781-9.24456-11.2645-1.8997645-4.5865-2.396828-9.6332-1.428339-14.5022.968489-4.8689 3.359029-9.3413 6.869329-12.85158 3.51027-3.5103 7.98267-5.90084 12.85157-6.869331 4.869-.968489 9.9157-.471425 14.5022 1.428331 4.5864 1.89976 8.5065 5.11689 11.2645 9.24458 2.758 4.1277 4.2301 8.9805 4.2301 13.9448-.0079 6.6545-2.6549 13.0342-7.3604 17.7396-4.7054 4.7055-11.0851 7.3525-17.7396 7.3604zm0-48.57c-4.6419 0-9.1796 1.37649-13.0392 3.95541-3.85964 2.57891-6.86785 6.24439-8.64424 10.53299s-2.24117 9.0076-1.33558 13.5604c.9056 4.5527 3.1409 8.7347 6.42324 12.017 3.28238 3.2823 7.46428 5.5176 12.01698 6.4232 4.5528.9056 9.2718.4408 13.5604-1.3355 4.2886-1.7764 7.9541-4.7846 10.533-8.6443 2.5789-3.8596 3.9554-8.3973 3.9554-13.0392-.0053-6.223-2.4797-12.1896-6.88-16.58995-4.4004-4.40033-10.367-6.87475-16.59-6.88005z"/></g></svg>