<svg height="24pt" viewBox="10 0 24 24" width="24pt" xmlns="http://www.w3.org/2000/svg"><path d="m17.242188 5.992188c-.304688 0-.582032.183593-.695313.46875-.113281.28125-.046875.605468.171875.820312l3.71875 3.71875h-18.6875c-.269531-.003906-.523438.136719-.660156.371094-.132813.234375-.132813.523437 0 .757812.136718.234375.390625.375.660156.371094h18.6875l-3.71875 3.71875c-.195312.1875-.273438.46875-.207031.730469.070312.261719.277343.46875.539062.539062.261719.066407.542969-.011719.730469-.207031l5-5c.292969-.292969.292969-.769531 0-1.0625l-5-5c-.140625-.144531-.335938-.226562-.539062-.226562zm0 0" fill="#fff"/></svg>