<svg width="166" height="32" viewBox="0 0 166 32" fill="none" xmlns="http://www.w3.org/2000/svg"><g clip-path="url(#clip0)"><path d="M26.4 0H15.945v14.128h13.868V3.478a3.51 3.51 0 00-1-2.46A3.382 3.382 0 0026.4 0" fill="#2D7DE4"/><path d="M26.4 17.872h-7.042a3.388 3.388 0 00-2.415 1.016 3.476 3.476 0 00-.74 1.13 3.525 3.525 0 00-.258 1.331V32h13.868V21.35a3.506 3.506 0 00-.258-1.332 3.476 3.476 0 00-.74-1.13 3.404 3.404 0 00-1.108-.753 3.353 3.353 0 00-1.307-.263zM11.886 32H3.467a3.43 3.43 0 01-2.451-1.035A3.566 3.566 0 010 28.468V3.532c0-.937.365-1.835 1.016-2.498A3.435 3.435 0 013.467 0h8.42v32zm117.218-11.609c-2.177 0-3.238.733-3.238 2.245 0 1.513.793 2.252 2.499 2.252a7.298 7.298 0 004.469-1.369v-2.868a26.287 26.287 0 00-3.73-.26zm6.968 7.276h-1.942l-.866-1.437a9.023 9.023 0 01-4.899 1.437c-3.81 0-5.738-1.677-5.738-4.983 0-3.306 2.177-5.079 6.477-5.079 1.248.002 2.494.089 3.73.26V16.71c0-1.623-1.264-2.41-3.857-2.41a16.61 16.61 0 00-4.764.76l-.35.103V12.32l.195-.055a17.214 17.214 0 014.919-.753c4.703 0 7.095 1.718 7.095 5.113v11.041zm-82.425 0h-3.252v-10.11a3.209 3.209 0 00-.846-2.187 3.095 3.095 0 00-2.09-.996h-.175a6.08 6.08 0 00-4.133 1.814v11.48h-3.238V5.434h1.666c.417 0 .817.169 1.112.469.295.3.46.708.46 1.133v5.886a7.403 7.403 0 014.495-1.403c3.985 0 6 2.053 6 6.085v10.062zm8.695-7.276c-2.184 0-3.246.733-3.246 2.245 0 1.513.793 2.252 2.5 2.252a7.256 7.256 0 004.468-1.369v-2.868a26.242 26.242 0 00-3.722-.26zm6.96 7.276h-1.941l-.84-1.437a9.003 9.003 0 01-4.898 1.437c-3.81 0-5.739-1.677-5.739-4.983 0-3.306 2.177-5.079 6.484-5.079 1.245.002 2.49.089 3.723.26V16.71c0-1.623-1.263-2.41-3.857-2.41a16.617 16.617 0 00-4.79.76l-.35.103V12.32l.195-.055a17.214 17.214 0 014.918-.753c4.704 0 7.096 1.718 7.096 5.113v11.041zm14.823 0H71.628V25.21l.067-.075 8.883-10.836h-8.655V11.52h12.491v2.601l-.06.075-8.775 10.836h8.546v2.635zm4.905-9.87h7.728c-.135-2.389-1.344-3.546-3.656-3.546-2.479 0-3.803 1.157-4.031 3.546h-.04zm4.94 9.85c-5.416 0-8.158-2.78-8.158-8.255 0-5.237 2.46-7.893 7.31-7.893 4.516 0 6.8 2.307 6.8 6.845a16.98 16.98 0 01-.127 2.054l-.034.246H89.017c.1 2.841 1.8 4.23 5.2 4.23a16.19 16.19 0 004.556-.575l.35-.095v2.8l-.202.054c-1.63.438-3.313.643-4.999.61m11.887-.001h-3.239V5.435h1.666c.417 0 .817.169 1.112.469.295.3.461.708.461 1.133v20.63zm10.771 0c-5.597 0-8.433-2.82-8.433-8.371 0-5.161 2.836-7.776 8.433-7.776a18.163 18.163 0 014.145.452l.209.048v2.792l-.329-.075a18.197 18.197 0 00-4.173-.438c-3.393 0-5.046 1.636-5.046 4.997 0 3.758 1.653 5.592 5.046 5.592a18.589 18.589 0 004.173-.438l.329-.082v2.8l-.209.047c-1.36.31-2.751.461-4.145.452zm28.295 0a20.793 20.793 0 01-5.524-.753l-.201-.055v-2.97l.349.116c1.735.582 3.549.88 5.376.883 3.359 0 3.359-1.472 3.359-1.958 0-.773-.235-1.8-2.284-1.8h-2.157c-3.467 0-5.228-1.642-5.228-4.88s2.238-4.73 6.646-4.73a20.65 20.65 0 015.503.753l.201.055v2.964l-.349-.117a17.108 17.108 0 00-5.376-.876c-3.554 0-3.554 1.472-3.554 1.95 0 1.233.672 1.808 2.137 1.808h2.183c3.669 0 5.524 1.636 5.524 4.873 0 3.238-2.231 4.737-6.626 4.737m16.033 0h-2.836c-2.735 0-4.119-1.506-4.119-4.483V8.994h2.177l.578 2.526h4.2v2.779h-3.716v8.68c0 1.3.504 1.909 1.579 1.909h2.137v2.78zM166 9.583c.007.367-.056.733-.188 1.075-.121.3-.299.572-.524.8a2.222 2.222 0 01-.746.5 2.368 2.368 0 01-.9.171 2.335 2.335 0 01-.894-.17 2.179 2.179 0 01-.753-.5 2.457 2.457 0 01-.517-.801 3.04 3.04 0 010-2.143c.119-.299.295-.571.517-.8.214-.219.471-.389.753-.5.284-.116.588-.174.894-.171.308-.003.613.055.9.17.279.114.533.284.746.5.225.23.403.502.524.801.131.34.195.703.188 1.068zm-.504 0a2.587 2.587 0 00-.134-.842 1.967 1.967 0 00-.383-.684 1.798 1.798 0 00-.585-.425 2.027 2.027 0 00-1.498 0 1.761 1.761 0 00-.968 1.109 2.605 2.605 0 000 1.69c.078.254.209.488.383.685.162.184.362.328.585.425a2.026 2.026 0 001.498 0c.221-.1.42-.245.585-.425.169-.201.299-.434.383-.684.092-.273.137-.56.134-.849zm-1.169 1.369a5.999 5.999 0 00-.356-.602 6.236 6.236 0 00-.343-.452h-.464v1.054h-.49V8.214c.131-.028.263-.049.396-.062h.377c.318-.02.634.058.907.226a.775.775 0 01.309.685.8.8 0 01-.134.458.809.809 0 01-.384.295l.162.212c.065.09.125.184.181.28a4.937 4.937 0 01.37.665l-.531-.021zm-1.163-1.465h.263c.176.007.352-.023.517-.089a.34.34 0 00.208-.363.367.367 0 00-.195-.356 1.014 1.014 0 00-.47-.102h-.323v.91z" fill="#041A3B"/></g><defs><clipPath id="clip0"><path fill="#fff" d="M0 0h166v32H0z"/></clipPath></defs></svg>